<?xml version="1.0" encoding="utf-8"?>
<!-- Generator: Adobe Illustrator 19.0.0, SVG Export Plug-In . SVG Version: 6.00 Build 0)  -->
<svg version="1.1" id="Layer_1" xmlns="http://www.w3.org/2000/svg" xmlns:xlink="http://www.w3.org/1999/xlink" x="0px" y="0px"
	 viewBox="11 -11 72 72" style="enable-background:new 11 -11 72 72;" xml:space="preserve">
<style type="text/css">
	.st0{fill:#5C26BA;}
</style>
<path id="facebook-circle-icon" class="st0" d="M47-11C27.1-11,11,5.1,11,25s16.1,36,36,36s36-16.1,36-36S66.9-11,47-11z M57.7,10.2
	c0,0-3.6,0-5,0c-1.8,0-2.1,0.7-2.1,2.6c0,1.5,0,4.4,0,4.4h7.2L57,25h-6.5v23.3h-9.3V25.1h-4.8v-7.9h4.8c0,0,0-1.1,0-6.2
	c0-5.8,3.1-8.9,10-8.9c1.1,0,6.4,0,6.4,0L57.7,10.2L57.7,10.2z"/>
</svg>
