<?xml version="1.0" encoding="utf-8"?>
<!-- Generator: Adobe Illustrator 19.0.0, SVG Export Plug-In . SVG Version: 6.00 Build 0)  -->
<svg version="1.1" id="Layer_1" xmlns="http://www.w3.org/2000/svg" xmlns:xlink="http://www.w3.org/1999/xlink" x="0px" y="0px"
	 viewBox="0 0 1637.4 998.2" style="enable-background:new 0 0 1637.4 998.2;" xml:space="preserve">
<style type="text/css">
	.st0{fill:#FFFFFF;}
</style>
<g id="XMLID_15_">
	<path id="XMLID_16_" class="st0" d="M21.5,728.7h66.3V383.5H21.5v-12.1h138.6v92.1h1.7c3.4-7.5,8.5-16.9,15.1-28.4
		c6.6-11.5,15.6-22.7,27.1-33.6c11.5-10.9,25.8-20.2,43-28c17.2-7.7,38.2-11.6,62.8-11.6c37.9,0,68.7,9.2,92.5,27.5
		c23.8,18.4,35.7,47.6,35.7,87.8v251.4h66.3v12.1H297.9v-12.1h66.3V450.7c0-22.4-5.3-40.7-15.9-55.1c-10.6-14.3-27.1-21.5-49.5-21.5
		c-18.4,0-35.9,4-52.5,12.1c-16.7,8-31.3,19.2-43.9,33.6c-12.6,14.4-22.5,31.3-29.7,50.8c-7.2,19.5-10.8,40.8-10.8,63.7v194.6h66.3
		v12.1H21.5V728.7z"/>
	<path id="XMLID_18_" class="st0" d="M564.7,556.6c0-28.1,6.2-54.2,18.5-78.3c12.3-24.1,28.1-44.9,47.4-62.4
		c19.2-17.5,40.7-31.1,64.6-40.9c23.8-9.8,47.2-14.6,70.2-14.6c22.9,0,46.3,4.9,70.2,14.6c23.8,9.8,45.3,23.4,64.6,40.9
		c19.2,17.5,35,38.3,47.3,62.4c12.3,24.1,18.5,50.2,18.5,78.3c0,27-5.7,52.4-17.2,76.2c-11.5,23.8-26.6,44.6-45.2,62.4
		c-18.7,17.8-40,31.9-64.1,42.2s-48.8,15.5-74,15.5c-25.3,0-49.9-5.2-74-15.5c-24.1-10.3-45.5-24.4-64.1-42.2
		c-18.7-17.8-33.7-38.6-45.2-62.4C570.5,608.9,564.7,583.5,564.7,556.6z M650.8,556.6c0,40.8,3.1,73.2,9.5,97.3
		c6.3,24.1,14.6,42.6,25,55.5c10.3,12.9,22.4,21.4,36.2,25.4c13.8,4,28.4,6,43.9,6s30.1-2,43.9-6c13.8-4,25.8-12.5,36.2-25.4
		c10.3-12.9,18.6-31.4,25-55.5c6.3-24.1,9.5-56.5,9.5-97.3c0-34.4-2.3-63.3-6.9-86.5c-4.6-23.2-11.6-42.2-21.1-56.8
		c-9.5-14.6-21.4-25.1-35.7-31.4c-14.4-6.3-31.3-9.5-50.8-9.5c-19.5,0-36.5,3.2-50.8,9.5c-14.4,6.3-26.3,16.8-35.7,31.4
		c-9.5,14.6-16.5,33.6-21.1,56.8C653.1,493.3,650.8,522.1,650.8,556.6z"/>
	<path id="XMLID_21_" class="st0" d="M992.6,371.5h207.5v12.1h-71.5l96.4,268.6l89.5-212.6l-21.5-56h-36.2v-12.1h171.3v12.1h-57.7
		l99.9,266.9L1578,383.5h-80.9v-12.1h140.3v12.1h-45.6l-154.1,385.7l-117.1-312.5l-130.9,312.5l-138.6-385.7h-58.5V371.5z"/>
</g>
</svg>
